<svg width="116" height="568" viewBox="0 0 116 568" fill="none" xmlns="http://www.w3.org/2000/svg">
<path d="M110.396 527.962L110.279 540.827L3.33353 539.858L3.0906 566.672L1.54066 566.658L2.14449 500.011L3.69443 500.025L3.45009 526.993L110.396 527.962ZM110.629 502.209L110.612 504.069L2.5365 456.743L1.77698 455.031L111.401 416.963L111.282 430.137L77.0739 441.918L76.6638 487.176L110.629 502.209ZM19.2323 461.7L75.1195 486.542L75.5197 442.369L19.2323 461.7ZM4.27258 401.994C3.55454 390.001 3.23719 379.406 3.3205 370.209C3.55174 344.687 12.192 332.003 29.2413 332.158C36.4743 332.223 42.9165 334.038 48.5678 337.603C54.219 341.168 57.9358 347.247 59.718 355.84L112.232 325.314L112.101 339.729L60.523 369.643L60.3418 389.637L111.645 390.102L111.528 402.966L4.27258 401.994ZM4.87044 370.223C4.81614 376.217 5.12069 382.523 5.78408 389.142L58.7919 389.623L58.9997 366.684C58.5118 352.109 48.6582 344.734 29.439 344.56C21.5859 344.489 15.5732 346.604 11.4007 350.907C7.1249 355.208 4.94814 361.647 4.87044 370.223ZM4.4349 247.209L5.98484 247.223L5.5425 296.046L52.0406 296.467L52.4506 251.209L54.0006 251.223L53.5905 296.481L110.938 297.001L111.411 244.768L112.961 244.782L112.372 309.879L3.87601 308.896L4.4349 247.209ZM5.17269 165.776L6.72262 165.79L6.28028 214.613L55.8783 215.063L56.2883 169.805L57.8382 169.819L57.4282 215.077L113.226 215.582L113.109 228.447L4.61379 227.464L5.17269 165.776ZM113.678 165.734L113.661 167.594L5.585 120.268L4.82548 118.556L114.45 80.4873L114.331 93.6617L80.1224 105.442L79.7123 150.7L113.678 165.734ZM22.2808 125.224L78.168 150.066L78.5682 105.893L22.2808 125.224ZM13.1227 6.86037C9.42104 16.2305 7.53227 25.1005 7.45644 33.4701C7.38155 41.7365 9.07963 48.2104 12.5507 52.8921C16.0218 57.5737 20.8572 59.9426 27.0569 59.9988C34.5999 60.0671 40.4736 56.1935 44.6779 48.378C46.4663 44.8807 48.1542 41.0725 49.7416 36.9534C51.2266 32.73 52.9183 28.5085 54.8166 24.2888C56.7149 20.0692 58.8682 16.2135 61.2766 12.7219C63.685 9.23021 67.0173 6.41862 71.2735 4.28709C75.4263 2.15463 80.7576 1.11788 87.2673 1.17686C93.6737 1.23491 99.1338 3.09278 103.647 6.75049C108.161 10.4082 111.221 14.8278 112.828 20.0092C114.332 25.0864 115.053 31.0348 114.991 37.8545C114.876 50.564 111.626 61.385 105.242 70.3175L104.009 69.5313C106.726 66.1458 108.988 61.7745 110.793 56.4173C112.496 50.9558 113.373 45.3835 113.424 39.7004C113.5 31.3308 111.653 24.1837 107.883 18.2593C104.011 12.2307 98.3035 9.18218 90.7605 9.11384C82.4942 9.03894 76.0006 12.9069 71.2796 20.7178C69.1812 24.2123 67.2345 28.0698 65.4395 32.2904C63.6455 36.4076 61.7993 40.5761 59.901 44.7957C57.8994 49.0144 55.6943 52.8696 53.2859 56.3613C48.0483 64.1675 40.6764 68.0275 31.1701 67.9414C23.6271 67.873 17.5536 65.2862 12.9497 60.181C8.24241 55.0748 5.93465 47.4586 6.0264 37.3323C6.11908 27.1027 7.96976 16.7341 11.5784 6.22635L13.1227 6.86037Z" fill="white"/>
</svg>
